<?xml version="1.0" encoding="UTF-8" standalone="no"?>
<!-- Created with Inkscape (http://www.inkscape.org/) -->

<svg
   xmlns:dc="http://purl.org/dc/elements/1.1/"
   xmlns:cc="http://creativecommons.org/ns#"
   xmlns:rdf="http://www.w3.org/1999/02/22-rdf-syntax-ns#"
   xmlns:svg="http://www.w3.org/2000/svg"
   xmlns="http://www.w3.org/2000/svg"
   xmlns:sodipodi="http://sodipodi.sourceforge.net/DTD/sodipodi-0.dtd"
   xmlns:inkscape="http://www.inkscape.org/namespaces/inkscape"
   width="613.33087"
   height="152.09315"
   id="svg2"
   version="1.1"
   inkscape:version="0.91 r13725"
   sodipodi:docname="Optimind.svg">
  <metadata
     id="metadata26">
    <rdf:RDF>
      <cc:Work
         rdf:about="">
        <dc:format>image/svg+xml</dc:format>
        <dc:type
           rdf:resource="http://purl.org/dc/dcmitype/StillImage" />
      </cc:Work>
    </rdf:RDF>
  </metadata>
  <sodipodi:namedview
     pagecolor="#ffffff"
     bordercolor="#666666"
     borderopacity="1"
     objecttolerance="10"
     gridtolerance="10"
     guidetolerance="10"
     inkscape:pageopacity="0"
     inkscape:pageshadow="2"
     inkscape:window-width="3775"
     inkscape:window-height="2136"
     id="namedview24"
     showgrid="false"
     inkscape:zoom="4.4869746"
     inkscape:cx="340.24869"
     inkscape:cy="113.97064"
     inkscape:window-x="65"
     inkscape:window-y="24"
     inkscape:window-maximized="1"
     inkscape:current-layer="svg2" />
  <defs
     id="defs4" />
  <g
     style="font-style:normal;font-variant:normal;font-weight:normal;font-stretch:normal;font-size:146.67773438px;line-height:125%;font-family:'Droid Sans';-inkscape-font-specification:'Droid Sans';letter-spacing:0px;word-spacing:0px;fill:#550044;fill-opacity:1;stroke:none"
     id="text2985">
    <path
       d="m 90.814144,64.358666 q 0,12.103778 -2.936419,22.058957 -2.8648,9.955178 -8.594399,17.045557 -5.729599,7.09038 -14.252377,10.95786 -8.451159,3.86748 -19.552257,3.86748 -11.674058,0 -20.268456,-3.86748 Q 16.687457,110.55356 11.029478,103.46318 5.443119,96.372801 2.7215595,86.417623 0,76.390824 0,64.215426 0,52.040029 2.7215595,42.15647 5.443119,32.201292 11.101098,25.182533 q 5.657979,-7.018759 14.252378,-10.814618 8.594398,-3.867479 20.268456,-3.867479 11.101098,0 19.480637,3.867479 8.451158,3.795859 14.180757,10.886238 5.729599,7.018759 8.594399,16.973937 2.936419,9.883559 2.936419,22.130576 z m -76.705006,0 q 0,9.811939 1.862119,17.690137 1.86212,7.806579 5.657979,13.321318 3.86748,5.443119 9.740319,8.379539 5.944458,2.8648 14.109137,2.8648 8.164679,0 14.037518,-2.8648 5.944459,-2.93642 9.740318,-8.379539 3.867479,-5.514739 5.657979,-13.321318 1.7905,-7.878198 1.7905,-17.690137 0,-9.883558 -1.7905,-17.690136 -1.7905,-7.806579 -5.586359,-13.178078 -3.795859,-5.443119 -9.668698,-8.307919 -5.872839,-2.936419 -14.037518,-2.936419 -8.164679,0 -14.109138,2.936419 -5.944458,2.8648 -9.811938,8.307919 -3.867479,5.371499 -5.729599,13.178078 -1.862119,7.806578 -1.862119,17.690136 z"
       style="fill:#550044"
       id="path3352" />
    <path
       d="m 147.89527,118.28852 q -4.22558,0 -7.66333,-0.93106 -3.43776,-0.93106 -6.23094,-2.43508 -2.72156,-1.57564 -4.87016,-3.65262 -2.07698,-2.07698 -3.72424,-4.36882 l -0.85944,0 q 0.21486,2.43508 0.42972,4.6553 0.14324,1.86212 0.28648,3.86748 0.14324,1.93374 0.14324,3.07966 l 0,33.58977 -13.03484,0 0,-113.875779 10.59976,0 1.86212,10.599758 0.57296,0 q 1.64726,-2.506699 3.72424,-4.655299 2.07698,-2.22022 4.79854,-3.795859 2.79318,-1.64726 6.23094,-2.57832 3.43775,-1.00268 7.73495,-1.00268 6.73228,0 12.24702,2.57832 5.51474,2.578319 9.38222,7.734958 3.9391,5.08502 6.0877,12.676738 2.1486,7.591719 2.1486,17.618517 0,10.098418 -2.1486,17.761757 -2.1486,7.591719 -6.0877,12.748359 -3.86748,5.15664 -9.38222,7.80658 -5.51474,2.57832 -12.24702,2.57832 z m -2.5067,-70.688931 q -5.44311,0 -9.23897,1.64726 -3.72424,1.64726 -6.0877,5.013399 -2.29184,3.36614 -3.43776,8.379539 -1.0743,5.013399 -1.21754,11.817298 l 0,2.936419 q 0,7.233619 0.93106,12.891598 1.00268,5.586359 3.29452,9.453838 2.36346,3.79586 6.23094,5.80122 3.86748,1.93374 9.66869,1.93374 9.6687,0 14.18076,-7.80658 4.58368,-7.806578 4.58368,-22.417056 0,-14.896957 -4.58368,-22.273816 -4.51206,-7.376859 -14.324,-7.376859 z"
       style="fill:#550044"
       id="path3354" />
    <path
       d="m 222.09358,107.61714 q 1.28916,0 2.8648,-0.14324 1.64726,-0.14324 3.15128,-0.3581 1.50402,-0.21486 2.72156,-0.50134 1.28916,-0.28648 1.93374,-0.50134 l 0,9.88356 q -0.93106,0.42972 -2.36346,0.85944 -1.4324,0.42972 -3.15128,0.7162 -1.71888,0.3581 -3.581,0.50134 -1.86212,0.21486 -3.65262,0.21486 -4.44044,0 -8.2363,-1.14592 -3.79586,-1.14592 -6.58904,-3.9391 -2.72156,-2.79318 -4.2972,-7.5201 -1.57563,-4.79854 -1.57563,-12.032159 l 0,-45.621932 -11.1011,0 0,-5.801219 11.1011,-5.586359 5.58635,-16.472597 7.5201,0 0,18.048237 19.76712,0 0,9.811938 -19.76712,0 0,45.621932 q 0,6.947139 2.22022,10.456519 2.29184,3.50938 7.44848,3.50938 z"
       style="fill:#550044"
       id="path3356" />
    <path
       d="m 261.19809,116.85612 -13.03484,0 0,-78.638749 13.03484,0 0,78.638749 z M 247.16057,16.946235 q 0,-4.2972 2.1486,-6.230939 2.22022,-1.9337399 5.44312,-1.9337399 1.57564,0 2.93642,0.5013399 1.4324,0.42972 2.43508,1.4324 1.0743,1.00268 1.64726,2.578319 0.64458,1.50402 0.64458,3.65262 0,4.153959 -2.29184,6.230939 -2.22022,2.005359 -5.3715,2.005359 -3.2229,0 -5.44312,-2.005359 -2.1486,-2.00536 -2.1486,-6.230939 z"
       style="fill:#550044"
       id="path3358" />
    <path
       d="m 380.44537,116.85612 0,-50.635334 q 0,-9.310598 -3.581,-13.965897 -3.581,-4.6553 -11.1011,-4.6553 -5.22826,0 -8.88088,1.71888 -3.65262,1.64726 -6.01608,4.941779 -2.29183,3.2229 -3.36613,8.093059 -1.0743,4.798539 -1.0743,11.101098 l 0,43.401715 -13.10646,0 0,-50.635334 q 0,-9.310598 -3.581,-13.965897 -3.50938,-4.6553 -11.02948,-4.6553 -5.51474,0 -9.23898,1.86212 -3.72424,1.86212 -6.01608,5.514739 -2.22022,3.652619 -3.2229,8.952498 -0.93106,5.29988 -0.93106,12.175398 l 0,40.751776 -13.03483,0 0,-78.638749 10.59975,0 1.86212,10.599758 0.7162,0 q 1.71888,-3.079659 4.08234,-5.299879 2.36346,-2.29184 5.15664,-3.795859 2.8648,-1.50402 6.01608,-2.22022 3.2229,-0.7162 6.51742,-0.7162 8.5944,0 14.25238,3.15128 5.7296,3.151279 8.45116,9.883558 l 0.57296,0 q 1.86212,-3.366139 4.44044,-5.801219 2.64993,-2.43508 5.72959,-4.010719 3.15128,-1.64726 6.58904,-2.43508 3.43776,-0.78782 7.01876,-0.78782 12.5335,0 18.83606,6.875519 6.37418,6.803899 6.37418,21.844096 l 0,51.351534 -13.03484,0 z"
       style="fill:#550044"
       id="path3360" />
    <path
       d="m 430.79422,116.85612 -13.03484,0 0,-78.638749 13.03484,0 0,78.638749 z M 416.7567,16.946235 q 0,-4.2972 2.1486,-6.230939 2.22022,-1.9337399 5.44312,-1.9337399 1.57564,0 2.93642,0.5013399 1.4324,0.42972 2.43508,1.4324 1.0743,1.00268 1.64726,2.578319 0.64458,1.50402 0.64458,3.65262 0,4.153959 -2.29184,6.230939 -2.22022,2.005359 -5.3715,2.005359 -3.2229,0 -5.44312,-2.005359 -2.1486,-2.00536 -2.1486,-6.230939 z"
       style="fill:#550044"
       id="path3362" />
    <path
       d="m 504.99253,116.85612 0,-50.635334 q 0,-9.310598 -3.79586,-13.965897 -3.72424,-4.6553 -11.74568,-4.6553 -5.80122,0 -9.74032,1.86212 -3.9391,1.86212 -6.37418,5.514739 -2.36346,3.652619 -3.43776,8.952498 -1.00268,5.29988 -1.00268,12.175398 l 0,40.751776 -13.03483,0 0,-78.638749 10.59975,0 1.86212,10.599758 0.7162,0 q 1.7905,-3.079659 4.22558,-5.299879 2.5067,-2.29184 5.44312,-3.795859 2.93642,-1.50402 6.23094,-2.22022 3.29452,-0.7162 6.73228,-0.7162 13.10646,0 19.6955,6.875519 6.66066,6.803899 6.66066,21.844096 l 0,51.351534 -13.03484,0 z"
       style="fill:#550044"
       id="path3364" />
    <path
       d="m 590.93651,106.32798 -0.57296,0 q -1.57564,2.43508 -3.72424,4.6553 -2.07698,2.1486 -4.87016,3.79586 -2.72156,1.64726 -6.15932,2.57832 -3.43776,0.93106 -7.73496,0.93106 -6.66066,0 -12.1754,-2.57832 -5.51474,-2.57832 -9.45384,-7.66334 -3.9391,-5.15664 -6.0877,-12.748359 -2.1486,-7.591719 -2.1486,-17.618517 0,-10.098418 2.1486,-17.690137 2.1486,-7.663338 6.0877,-12.819978 3.9391,-5.156639 9.45384,-7.734958 5.51474,-2.64994 12.1754,-2.64994 4.22558,0 7.66334,0.93106 3.43776,0.93106 6.15932,2.5067 2.79318,1.575639 4.94178,3.652619 2.1486,2.07698 3.72424,4.368819 l 0.85944,0 q -0.21486,-2.435079 -0.42972,-4.655299 -0.14324,-1.86212 -0.28648,-3.795859 -0.14324,-2.00536 -0.14324,-3.15128 l 0,-31.2263143 13.03483,0 0,111.4407033 -10.52814,0 -1.93373,-10.52814 z m -20.55494,1.14592 q 5.44312,0 9.16736,-1.64726 3.79586,-1.64726 6.0877,-5.0134 2.36346,-3.366139 3.43776,-8.379538 1.14592,-5.08502 1.28916,-11.817298 l 0,-2.93642 q 0,-7.233619 -1.00268,-12.819978 -0.93106,-5.657979 -3.29452,-9.453838 -2.29184,-3.867479 -6.15932,-5.801219 -3.86748,-2.00536 -9.6687,-2.00536 -9.6687,0 -14.25238,7.806579 -4.51206,7.806579 -4.51206,22.417056 0,14.968577 4.51206,22.345436 4.58368,7.30524 14.39562,7.30524 z"
       style="fill:#550044"
       id="path3366" />
  </g>
  <path
     inkscape:connector-curvature="0"
     style="fill:#d40000"
     id="path2999"
     d="m 269.58251,17.02507 a 15.060668,15.060668 0 0 1 -30.12133,0 15.060668,15.060668 0 1 1 30.12133,0 z" />
  <path
     inkscape:connector-curvature="0"
     style="fill:#d40000"
     id="path2999-1"
     d="m 439.15105,17.02508 a 15.060668,15.060668 0 0 1 -30.12133,0 15.060668,15.060668 0 1 1 30.12133,0 z" />
  <path
     inkscape:connector-curvature="0"
     style="fill:#ff8080;stroke:#ff6359;stroke-width:2.0924542;stroke-opacity:1"
     id="path2999-4"
     d="m 432.93035,17.025107 a 8.676255,8.5125524 0 0 1 -17.35251,0 8.676255,8.5125524 0 1 1 17.35251,0 z" />
  <path
     inkscape:connector-curvature="0"
     style="fill:#ff8080;stroke:#ff6359;stroke-width:2.0924542;stroke-opacity:1"
     id="path2999-4-4"
     d="m 263.1981,16.920554 a 8.676255,8.5125524 0 0 1 -17.35251,0 8.676255,8.5125524 0 1 1 17.35251,0 z" />
  <path
     inkscape:connector-curvature="0"
     style="fill:#d40000"
     id="path2999-9"
     d="m 611.54792,15.06065 a 15.060668,15.060668 0 0 1 -30.12133,0 15.060668,15.060668 0 1 1 30.12133,0 z" />
  <path
     inkscape:connector-curvature="0"
     style="fill:#ff8080;stroke:#ff5863;stroke-width:2.0924542;stroke-opacity:1"
     id="path2999-4-4-1"
     d="m 605.16349,14.956134 a 8.676255,8.5125524 0 0 1 -17.35251,0 8.676255,8.5125524 0 1 1 17.35251,0 z" />
  <path
     inkscape:connector-curvature="0"
     style="fill:#d40000"
     id="path2999-12"
     d="m 160.20144,76.28551 a 15.060668,15.060668 0 0 1 -30.12133,0 15.060668,15.060668 0 1 1 30.12133,0 z" />
  <path
     inkscape:connector-curvature="0"
     style="fill:#ff8080;stroke:#ff6359;stroke-width:2.0924542;stroke-opacity:1"
     id="path2999-4-4-2"
     d="m 153.81699,75.958087 a 8.676255,8.5125524 0 0 1 -17.35251,0 8.676255,8.5125524 0 1 1 17.35251,0 z" />
  <path
     inkscape:connector-curvature="0"
     style="fill:#d40000"
     id="path2999-3"
     d="m 223.12649,42.444395 a 15.060668,15.060668 0 0 1 -30.12133,0 15.060668,15.060668 0 1 1 30.12133,0 z" />
  <path
     inkscape:connector-curvature="0"
     style="fill:#ff8080;stroke:#ff6359;stroke-width:2.0924542;stroke-opacity:1"
     id="path2999-4-4-5"
     d="m 216.96492,42.33989 a 8.676255,8.5125524 0 0 1 -17.35251,0 8.676255,8.5125524 0 1 1 17.35251,0 z" />
  <path
     inkscape:connector-curvature="0"
     style="fill:#d40000"
     id="path2999-6"
     d="m 60.997523,64.4989 a 15.060668,15.060668 0 0 1 -30.121336,0 15.060668,15.060668 0 1 1 30.121336,0 z" />
  <path
     inkscape:connector-curvature="0"
     style="fill:#ff8080;stroke:#ff6359;stroke-width:2.0924542;stroke-opacity:1"
     id="path2999-4-4-19"
     d="m 54.613092,64.171507 a 8.6762545,8.5125519 0 0 1 -17.352509,0 8.6762545,8.5125519 0 1 1 17.352509,0 z" />
  <path
     inkscape:connector-curvature="0"
     style="fill:#ff00ff;stroke:#ff6359;stroke-width:3.66694331px;stroke-linecap:butt;stroke-linejoin:miter;stroke-opacity:1"
     id="path3114"
     d="m 54.551028,65.194979 81.975532,9.739654" />
  <path
     inkscape:connector-curvature="0"
     style="fill:#ff00ff;stroke:#ff6359;stroke-width:3.57548237px;stroke-linecap:butt;stroke-linejoin:miter;stroke-opacity:1"
     id="path3884"
     d="M 152.81492,72.051572 200.83736,46.915021" />
  <path
     inkscape:connector-curvature="0"
     style="fill:none;stroke:#ff6359;stroke-width:3.7717793px;stroke-linecap:butt;stroke-linejoin:miter;stroke-opacity:1"
     id="path3886"
     d="m 216.81297,37.848127 29.8532,-16.881531" />
  <path
     inkscape:connector-curvature="0"
     style="fill:none;stroke:#ff6359;stroke-width:3.66694331px;stroke-linecap:butt;stroke-linejoin:miter;stroke-opacity:1"
     id="path3900"
     d="m 261.86089,16.7143 153.71697,0.294208" />
  <path
     inkscape:connector-curvature="0"
     style="fill:none;stroke:#ff5863;stroke-width:3.65183926px;stroke-linecap:butt;stroke-linejoin:miter;stroke-opacity:1"
     id="path3902"
     d="M 432.9303,16.911192 588.25677,14.847195" />
</svg>
